<?xml version="1.0" ?><svg style="enable-background:new 0 0 48 48;" version="1.1" viewBox="0 0 48 48" xml:space="preserve" xmlns="http://www.w3.org/2000/svg" xmlns:xlink="http://www.w3.org/1999/xlink"><g id="Padding__x26__Artboard"/><g id="Icons"><g><path d="M31.86877,15.41858c0.04254,0.23523,0.07599,0.47369,0.07599,0.7204    c0,0.14825-0.03003,0.28857-0.04565,0.43292c0.01715,0.00195,0.04468,0.0061,0.05164,0.00635h0.91028l0.00604-1.17902    l-0.22882,0.00195c-0.00098,0.00018-0.0014,0.00134-0.00238,0.00153c-0.0025,0.00049-0.00433-0.00189-0.00684-0.00146    l-0.67828,0.00574C31.93878,15.40722,31.90008,15.41382,31.86877,15.41858z" style="fill:#30302F;"/><path d="M27.53546,18.63134c1.4472,0,2.62451-1.11871,2.62451-2.49323    c0-1.3753-1.17731-2.49402-2.62451-2.49402c-1.44733,0-2.62451,1.11871-2.62451,2.49402    C24.91095,17.51263,26.08813,18.63134,27.53546,18.63134z M26.93225,15.41522c0.55353,0,1.0022,0.42859,1.0022,0.9574    c0,0.52869-0.44867,0.95728-1.0022,0.95728c-0.55341,0-1.00208-0.42859-1.00208-0.95728    C25.93017,15.84381,26.37884,15.41522,26.93225,15.41522z" style="fill:#30302F;"/><path d="M32.30365,30.54986l-0.4071,0.03735c-0.05768,0.00519-0.11499,0.00781-0.1723,0.00781    c-0.46368,0-0.91589-0.1731-1.26117-0.48828c-0.38843-0.354-0.61145-0.85864-0.61145-1.38391v-0.95306l-0.19769,0.16504    c-0.05597,0.0473-0.12616,0.07141-0.19757,0.07141c-0.02972,0-0.05994-0.00433-0.08923-0.01288    c-0.099-0.03015-0.17688-0.1076-0.2066-0.20673l-0.47028-1.57159c-0.00897-0.03015,0.00018-0.06,0.00049-0.09052h-9.37799    c0.00037,0.03052,0.00946,0.06036,0.00043,0.09052l-0.47021,1.57159c-0.02972,0.09912-0.1076,0.17657-0.20673,0.20673    c-0.02917,0.00854-0.05939,0.01288-0.08905,0.01288c-0.07153,0-0.14172-0.02411-0.19763-0.07141l-0.26361-0.22003v1.00806    c0,0.52527-0.22296,1.02991-0.61139,1.38391c-0.3454,0.31519-0.79749,0.48828-1.26117,0.48828    c-0.05731,0-0.11505-0.00262-0.1723-0.00781l-0.35059-0.03217c-0.05182,0.44049-0.05212,1.3775,0.65546,2.29974    c1.17291,1.52783,3.82153,2.34491,7.6532,2.37683c3.8089-0.03192,6.44983-0.85071,7.6308-2.38202    C32.33947,31.92968,32.34875,30.98828,32.30365,30.54986z" style="fill:#30302F;"/><path d="M20.38702,18.63134c1.44733,0,2.62451-1.11871,2.62451-2.49323    c0-1.3753-1.17719-2.49402-2.62451-2.49402c-1.44714,0-2.62439,1.11871-2.62439,2.49402    C17.76263,17.51263,18.93988,18.63134,20.38702,18.63134z M20.98455,15.41522c0.55341,0,1.00208,0.42859,1.00208,0.9574    c0,0.52869-0.44867,0.95728-1.00208,0.95728c-0.55353,0-1.0022-0.42859-1.0022-0.95728    C19.98236,15.84381,20.43103,15.41522,20.98455,15.41522z" style="fill:#30302F;"/><path d="M20.38885,19.74829c0.36221,0,0.72424-0.05001,1.07283-0.14843    c0.34301-0.09685,0.67278-0.24044,0.97685-0.42645c0.30158-0.18449,0.57767-0.41066,0.81635-0.67155    c0.11856-0.1296,0.22786-0.26768,0.32655-0.41298c0.04795-0.07059,0.08659-0.15349,0.14678-0.21439    c0.0639-0.06466,0.15823-0.12105,0.25258-0.11221c0.18202,0.01707,0.26134,0.17758,0.35212,0.31257    c0.09933,0.14772,0.2096,0.28807,0.32941,0.41972c0.23875,0.26236,0.51528,0.48984,0.81752,0.6754    c0.30474,0.1871,0.63541,0.33155,0.97945,0.42898c0.34962,0.09902,0.71281,0.14934,1.07618,0.14934    c2.091,0,3.79181-1.61908,3.79181-3.60931c0-1.99017-1.70081-3.60925-3.79181-3.60925c-0.2995,0-0.59893,0.03415-0.89071,0.10171    c-0.28763,0.06659-0.56772,0.16558-0.83316,0.29485c-0.26266,0.12792-0.51091,0.28545-0.73789,0.46943    c-0.22668,0.18373-0.43201,0.3938-0.60949,0.62545c-0.08895,0.1161-0.16358,0.23973-0.2418,0.36284    c-0.06203,0.09764-0.17057,0.18116-0.29183,0.17026c-0.14698-0.01322-0.20939-0.14985-0.27996-0.25851    c-0.08004-0.12323-0.16353-0.24323-0.2563-0.35732c-0.184-0.22631-0.39507-0.43038-0.62662-0.60768    c-0.23215-0.17776-0.48477-0.32859-0.75099-0.44944c-0.26927-0.12224-0.55239-0.21379-0.84219-0.27264    c-0.25838-0.05247-0.522-0.07893-0.78565-0.07893c-2.091,0-3.7923,1.61908-3.7923,3.60925    C16.59655,18.12921,18.29785,19.74829,20.38885,19.74829z M27.53546,13.02752c1.78741,0,3.24188,1.39508,3.24188,3.11059    c0,1.71472-1.45447,3.1098-3.24188,3.1098s-3.242-1.39508-3.242-3.1098C24.29345,14.4226,25.74804,13.02752,27.53546,13.02752z     M20.38702,13.02752c1.78741,0,3.242,1.39508,3.242,3.11059c0,1.71472-1.45459,3.1098-3.242,3.1098    c-1.78735,0-3.24188-1.39508-3.24188-3.1098C17.14514,14.4226,18.59967,13.02752,20.38702,13.02752z" style="fill:#30302F;"/><path d="M23.82483,35.85296c-0.11017,0.15723-0.3006,0.51227-0.20911,1.00555    c0.03296,0.17902,0.02075,0.32172-0.00916,0.44275l0.55634,0.00055c-0.02997-0.12115-0.04211-0.26404-0.00897-0.4433    c0.09088-0.49292-0.10358-0.8526-0.21265-1.00879" style="fill:none;"/><g><path d="M23.10998,37.90387c0.0014,0.22052,0.00043,0.57947-0.00494,1.21783     c-0.00128,0.14899-0.10846,0.27563-0.25488,0.30139l-0.23602,0.04132c-0.19116,0.14899-0.72638,0.50043-1.51489,0.50043     c-0.11841,0-0.24188-0.00781-0.37158-0.02594c-0.99811-0.13599-1.16693-0.2196-1.22931-0.43658     c-0.00952-0.03357-0.01343-0.06891-0.01123-0.10333c-0.00854-0.20758-0.01379-1.15747,0.60114-1.44415     c0.04773-0.02234,0.07977-0.03943,0.11462-0.05743l0.80951,0.00183L23.10998,37.90387z" style="fill:#30302F;"/></g><path d="M27.52734,37.91369c0.0274,0.01379,0.04791,0.02515,0.08209,0.04114    c0.61493,0.28668,0.6098,1.23657,0.6012,1.44415c0.00214,0.03442-0.00177,0.06976-0.01117,0.10333    c-0.0625,0.21698-0.23132,0.3006-1.22943,0.43658c-0.12915,0.01813-0.2536,0.02594-0.37158,0.02594    c-0.78888,0-1.32367-0.35144-1.51477-0.50043l-0.23602-0.04132c-0.14642-0.02576-0.2536-0.1524-0.25488-0.30139    c-0.00531-0.63391-0.00641-0.99341-0.00507-1.21454l0.61713,0.00134L27.52734,37.91369z" style="fill:#30302F;"/><path d="M23.94128,35.84973c0.10907,0.15619,0.30353,0.51587,0.21265,1.00879    c-0.03314,0.17926-0.021,0.32214,0.00897,0.4433l3.09735-0.00159h0.64093c0.15253-0.47266,0.52625-1.32428,0.88086-2.0401    c0.00092-0.00177-0.00049-0.00372,0.00037-0.00549c-0.32782,0.10742-0.78113,0.20245-0.78113,0.20245    c-0.98004,0.21387-2.11102,0.33411-3.36938,0.37366" style="fill:#30302F;"/><path d="M17.20544,34.63739c-0.86279-0.48578-1.01459-0.57928-1.02667-1.06024l0.00228-0.08253    l-0.62142,0.01381l-1.33698,0.0224l-0.61774,0.01306c0.01819,0.28693,0.01758,0.61365-0.04535,0.82404l-0.04089,0.12921    c-0.15674,0.48737-0.44873,1.39508,0.0116,1.95319c0.23639,0.28668,0.62177,0.41937,1.13977,0.38922    c0.20709,0.29626,0.67603,0.85858,1.24963,0.85858c0.03485,0,0.07019-0.00171,0.1059-0.00598    c0.49347-0.0603,0.8703-0.50812,1.14966-1.36932c0.24072-0.11542,0.66144-0.37549,0.69281-0.7923    C17.89355,35.19891,17.67047,34.89843,17.20544,34.63739z" style="fill:#30302F;"/><path d="M23.82483,35.85296l-0.68469-0.02832c-1.28186-0.05103-2.41602-0.19403-3.40082-0.42816    l-0.79054-0.20444c0.00525,0.01996,0.02888,0.04886,0.03846,0.06808c0.35492,0.71582,0.7287,1.56744,0.88129,2.0401h0.64081    l3.09723,0.00104c0.02991-0.12103,0.04211-0.26373,0.00916-0.44275C23.52423,36.36523,23.71466,36.01019,23.82483,35.85296z" style="fill:#30302F;"/><path d="M31.82439,33.50842l0.00159,0.03198c-0.00525,0.51483-0.14288,0.59869-1.02832,1.09698    c-0.4646,0.26105-0.68774,0.56152-0.66229,0.89313c0.03149,0.41681,0.45209,0.67688,0.69287,0.7923    c0.27942,0.86121,0.65619,1.30902,1.1496,1.36932c0.03583,0.00427,0.07111,0.00598,0.10602,0.00598    c0.57306,0,1.04242-0.56232,1.24957-0.85858c0.5249,0.03015,0.90381-0.10254,1.13983-0.38922    c0.45978-0.55811,0.1687-1.4649,0.01196-1.95148l-0.04089-0.13092c-0.06433-0.21484-0.06323-0.55084-0.0448-0.8371h-0.6192    l-1.33649-0.0224" style="fill:#30302F;"/><path d="M32.63586,15.40271c-0.0025,0.00049-0.00433-0.00189-0.00684-0.00146l-0.67828,0.00574    c-0.01196,0.00024-0.05066,0.00684-0.08197,0.0116c0.04254,0.23523,0.07599,0.47369,0.07599,0.7204    c0,0.14825-0.03003,0.28857-0.04565,0.43292c0.01715,0.00195,0.04468,0.0061,0.05164,0.00635h0.91028l0.00604-1.17902    l-0.22882,0.00195C32.63726,15.40136,32.63684,15.40252,32.63586,15.40271z" style="fill:none;"/><path d="M16.05627,15.40698h-1.01056l-0.00793,1.17902l0.97791-0.00629    C15.99426,16.43286,15.95955,15.82549,16.05627,15.40698z" style="fill:#30302F;"/><path d="M14.95184,25.09881l-0.49707-0.42188c-0.37903,0.89728-1.80396,4.63538-0.93005,8.2373h0.63031    l1.48059-0.02386c-0.8551-1.37457-0.57379-2.69189-0.55737-2.75177l0.00031-0.00049c0.0321-0.237,0.2124-1.42688,0.6947-2.03021    c0.10681-0.13269,0.30103-0.15497,0.43402-0.04828c0.13306,0.10681,0.1546,0.3006,0.04828,0.43408    c-0.26312,0.32904-0.43433,0.99976-0.51843,1.44562l0.36035,0.03308c0.35736,0.0318,0.6972-0.08099,0.96161-0.32129    c0.26385-0.24115,0.40948-0.57092,0.40948-0.92828v-1.52338L14.95184,25.09881z" style="fill:#30302F;"/><path d="M27.05706,22.28961c-0.0332,0.013-3.39441,1.21173-6.55969,0.00183    c-0.15985-0.0603-0.33765,0.01886-0.3988,0.17816c-0.06073,0.15942,0.01898,0.33759,0.17828,0.3988    c1.15308,0.44092,2.31451,0.58734,3.35132,0.58734c2.00708,0,3.5451-0.55121,3.64117-0.58563    c0.15973-0.05939,0.242-0.23602,0.18341-0.39618C27.39416,22.31384,27.21594,22.23449,27.05706,22.28961z" style="fill:none;"/><path d="M14.97607,23.2622l-0.2771,0.77441l0.4917,0.4577l3.19501,2.66711l0.27686-0.92584    l-3.17218-2.57837L14.97607,23.2622z M18.06256,26.02832c0.17181,0,0.3111,0.13312,0.3111,0.29718    c0,0.16412-0.13928,0.29724-0.3111,0.29724s-0.31104-0.13312-0.31104-0.29724    C17.75152,26.16143,17.89074,26.02832,18.06256,26.02832z" style="fill:#30302F;"/><path d="M31.81817,12.29461c-1.51013-2.59564-4.30603-4.18707-7.47864-4.2569    c-2.70743-0.05858-7.32659,0.86057-9.0359,5.72728c-0.12887,0.36692-0.18805,0.73203-0.2535,1.04609h0.6308l0.5134-0.02069    c0.01178,0,0.02234,0.00586,0.034,0.00653c0.58899-1.67029,2.22125-2.88379,4.16052-2.88379    c1.42029,0,2.7467,0.66589,3.57306,1.75891c0.82635-1.09302,2.15314-1.75891,3.57355-1.75891    c1.94751,0,3.58521,1.22443,4.16736,2.90637c0.09424-0.0174,0.18359-0.02911,0.24792-0.02911h0.24359h0.63239    C32.69073,14.17828,32.41473,13.31897,31.81817,12.29461z" style="fill:#30302F;"/><g><path d="M33.31219,24.05804l-0.29224-0.81653l-0.50684,0.41571l-3.17218,2.57837l0.27679,0.92584     l3.19513-2.66711L33.31219,24.05804z M29.98455,26.58331c-0.17181,0-0.3111-0.133-0.3111-0.29718     c0-0.16412,0.13928-0.29712,0.3111-0.29712s0.3111,0.133,0.3111,0.29712C30.29565,26.45031,30.15637,26.58331,29.98455,26.58331z     " style="fill:#30302F;"/><path d="M32.96563,22.50213v-5.328c-0.06622,0.01459-0.61737,0.02069-0.61737,0.02069h-0.39752     c-0.03973,0-0.099-0.00781-0.15729-0.01556c-0.487,1.82593-2.20349,3.18567-4.258,3.18567     c-1.42041,0-2.74719-0.66595-3.57355-1.75824c-0.82642,1.09229-2.15314,1.75824-3.57306,1.75824     c-2.04895,0-3.76068-1.35217-4.25342-3.1701h-1.09766v5.27045l0.61749,0.53058l3.09052,2.51208h10.51184l3.09064-2.51208     L32.96563,22.50213z M27.26934,22.87011c-0.09607,0.03442-1.63409,0.58563-3.64117,0.58563     c-1.0368,0-2.19824-0.14642-3.35132-0.58734c-0.1593-0.06122-0.23901-0.23938-0.17828-0.3988     c0.06116-0.1593,0.23895-0.23846,0.3988-0.17816c3.16528,1.2099,6.52649,0.01117,6.55969-0.00183     c0.15887-0.05511,0.3371,0.02423,0.39569,0.18433C27.51135,22.63409,27.42907,22.81073,27.26934,22.87011z" style="fill:#30302F;"/><path d="M33.53869,24.65332l-0.48712,0.44556l-2.58252,2.15558v1.46838     c0,0.35736,0.14557,0.68713,0.40948,0.92828c0.26404,0.23938,0.6037,0.35229,0.96112,0.32129l0.3656-0.03357     c-0.08484-0.44611-0.25708-1.11792-0.51892-1.44513c-0.10626-0.13348-0.08478-0.32727,0.04834-0.43408     c0.1322-0.10669,0.32758-0.08441,0.43396,0.04828c0.49884,0.62402,0.67578,1.88263,0.69855,2.05756     c0.03784,0.1557,0.28973,1.40906-0.52954,2.72443l1.51208,0.02435H34.479C35.35199,29.26422,33.90088,25.50494,33.53869,24.65332     z" style="fill:#30302F;"/></g><path d="M32.34826,17.19482c0,0,0.55115-0.0061,0.61737-0.02069L32.34826,17.19482z" style="fill:#30302F;"/></g></g></svg>